<?xml version="1.0" standalone="no"?><!DOCTYPE svg PUBLIC "-//W3C//DTD SVG 1.1//EN" "http://www.w3.org/Graphics/SVG/1.1/DTD/svg11.dtd"><svg width="100%" height="100%" viewBox="0 0 117 83" version="1.1" xmlns="http://www.w3.org/2000/svg" xmlns:xlink="http://www.w3.org/1999/xlink" xml:space="preserve" style="fill-rule:evenodd;clip-rule:evenodd;stroke-linecap:round;stroke-linejoin:round;stroke-miterlimit:1.41421;"><g id="Logo"><path d="M23.088,44.847l0.007,-36.544c0,-4.033 3.274,-7.308 7.307,-7.308c4.034,0 7.308,3.275 7.308,7.308l-0.006,36.544l21.89,0.024c2.008,0 3.638,-1.63 3.638,-3.638c0,-2.008 -1.63,-3.639 -3.638,-3.639l0,-0.024c-10.093,0 -18.288,-8.194 -18.288,-18.287c0,-10.093 8.195,-18.288 18.288,-18.288l49.247,0c4.045,0 7.33,3.285 7.33,7.331c0,0.783 -0.123,1.537 -0.351,2.245c-0.122,0.427 -0.285,0.848 -0.49,1.26l-16.461,33.016l9.972,0c4.045,0 7.33,3.285 7.33,7.33c0,4.046 -3.285,7.331 -7.33,7.331l-21.337,0c-1.148,0.078 -2.329,-0.113 -3.446,-0.606c-2.593,-1.13 -4.409,-3.717 -4.409,-6.725c0,-1.443 0.418,-2.789 1.139,-3.924l16.253,-32.597l-21.476,0c0,0 -13.963,-0.012 -15.971,-0.012c-2.008,0 -3.638,1.631 -3.638,3.639c0,2.008 1.63,3.638 3.638,3.638l0,0.012c10.093,0 18.287,8.194 18.287,18.288c0,10.093 -8.194,18.287 -18.287,18.287l-21.89,0l0,3.626c0,10.093 -8.195,18.288 -18.288,18.288c-10.093,0 -18.287,-8.195 -18.287,-18.288c0,-10.093 8.194,-18.287 18.287,-18.287c3.682,0 3.698,-0.003 3.621,0c-0.038,0.001 0.051,0 0.051,0ZM19.457,59.508c2.004,0 3.631,1.627 3.631,3.631c0,2.003 -1.627,3.63 -3.631,3.63c-2.004,0 -3.63,-1.627 -3.63,-3.63c0,-2.004 1.626,-3.631 3.63,-3.631ZM30.402,4.655c2.025,0 3.67,1.644 3.67,3.67c0,2.026 -1.645,3.67 -3.67,3.67c-2.026,0 -3.671,-1.644 -3.671,-3.67c0,-2.026 1.645,-3.67 3.671,-3.67Z" style="fill:#e67e22;stroke-width:2px;stroke:#f1c40f;"/></g></svg>